<?xml version="1.0" standalone="no"?>
<!DOCTYPE svg PUBLIC "-//W3C//DTD SVG 20010904//EN"
 "http://www.w3.org/TR/2001/REC-SVG-20010904/DTD/svg10.dtd">
<svg version="1.0" xmlns="http://www.w3.org/2000/svg"
 width="912.000000pt" height="912.000000pt" viewBox="0 0 912.000000 912.000000"
 preserveAspectRatio="xMidYMid meet">
<metadata>
Created by potrace 1.11, written by Peter Selinger 2001-2013
</metadata>
<g transform="translate(0.000000,912.000000) scale(0.100000,-0.100000)"
fill="#000000" stroke="none">
<path d="M3140 8846 c-335 -49 -647 -185 -980 -430 -230 -169 -356 -330 -415
-531 -23 -76 -26 -103 -21 -171 18 -287 247 -546 665 -752 231 -114 450 -182
591 -182 41 0 149 9 240 20 91 11 245 25 343 32 432 28 681 -51 779 -249 27
-54 31 -75 31 -136 0 -91 -37 -206 -105 -325 -71 -124 -62 -119 -155 -88 -43
14 -132 39 -198 55 -104 26 -174 38 -395 67 -131 18 -462 3 -707 -31 -459 -64
-937 -268 -1293 -552 -170 -135 -382 -364 -521 -563 -171 -243 -357 -626 -439
-902 -125 -421 -110 -916 45 -1418 31 -100 77 -221 180 -465 92 -219 117 -357
81 -455 -23 -61 -118 -182 -190 -243 -56 -46 -184 -117 -212 -117 -6 0 -27
-16 -47 -36 -27 -28 -36 -47 -40 -86 -10 -83 20 -122 141 -182 157 -79 354
-135 667 -191 431 -76 615 -122 910 -228 214 -76 284 -98 430 -131 354 -81
753 -115 1110 -97 591 31 1054 157 1380 374 152 102 479 390 637 562 621 677
829 1383 639 2177 -37 154 -114 390 -174 528 -31 72 -41 107 -34 111 23 13
345 78 487 100 187 27 395 30 500 6 98 -23 171 -65 210 -122 72 -105 95 -233
120 -680 23 -402 68 -652 142 -800 45 -87 148 -187 239 -229 83 -39 105 -44
236 -53 368 -24 812 235 982 574 42 85 78 212 90 326 28 247 -54 424 -242 522
-31 17 -57 33 -57 37 0 4 27 49 60 100 304 469 344 884 118 1210 -152 218
-397 384 -938 634 -243 112 -310 156 -310 203 0 14 -9 69 -20 121 -115 545
-459 862 -1010 930 -119 14 -371 12 -530 -4 -74 -8 -135 -14 -136 -13 0 1 -9
49 -18 107 -28 168 -83 391 -132 537 -141 425 -349 687 -642 811 -130 56 -199
67 -402 67 -161 0 -198 -3 -288 -24 -119 -28 -99 -32 -292 54 -270 120 -438
177 -625 210 -125 22 -367 28 -485 11z m1115 -952 c208 -38 400 -116 663 -269
221 -129 551 -411 731 -625 35 -41 73 -86 85 -100 13 -14 30 -38 39 -55 18
-36 62 -76 73 -67 4 4 4 2 0 -5 -4 -7 9 -33 28 -60 84 -116 232 -381 273 -488
92 -244 120 -363 129 -545 10 -197 -34 -351 -134 -468 -96 -114 -207 -171
-375 -192 -175 -23 -156 -32 -384 197 -275 278 -494 448 -789 612 l-111 62 67
133 c90 180 115 275 114 431 0 111 -3 126 -33 202 -63 160 -173 280 -330 362
-167 86 -335 116 -639 114 l-214 -1 4 161 c3 145 7 170 31 235 55 152 123 236
244 306 127 71 334 95 528 60z m-633 -2035 c256 -34 499 -111 748 -236 443
-221 820 -553 1134 -998 291 -412 495 -901 558 -1340 19 -131 16 -438 -6 -555
-62 -344 -216 -667 -467 -980 -170 -212 -554 -570 -748 -695 -274 -177 -684
-285 -1199 -315 -206 -12 -396 -6 -647 21 -316 34 -529 83 -813 189 -275 102
-479 155 -897 230 -249 44 -442 87 -450 99 -2 5 35 48 83 97 167 169 232 298
240 475 7 164 -24 273 -186 654 -252 594 -284 1180 -93 1675 110 282 245 529
415 758 99 133 330 365 456 459 398 294 849 448 1417 482 157 10 277 5 455
-20z"/>
</g>
</svg>
