<?xml version="1.0" encoding="UTF-8"?>
<svg width="30.267mm" height="28.564mm" version="1.1" viewBox="0 0 30.267 28.564" xmlns="http://www.w3.org/2000/svg" xmlns:cc="http://creativecommons.org/ns#" xmlns:dc="http://purl.org/dc/elements/1.1/" xmlns:rdf="http://www.w3.org/1999/02/22-rdf-syntax-ns#" xmlns:xlink="http://www.w3.org/1999/xlink">
 <defs>
  <radialGradient id="radialGradient872" cx="101.41" cy="96.432" r="9.6302" gradientTransform="matrix(-.72647 1.1113 -.96314 -.62962 283.29 33.54)" gradientUnits="userSpaceOnUse">
   <stop stop-color="#f9f4e4" offset="0"/>
   <stop stop-color="#ead7bb" offset="1"/>
  </radialGradient>
  <radialGradient id="radialGradient2958" cx="30.079" cy="-79.539" r="11.313" gradientTransform="matrix(-.58643 .553 -1.0585 -1.1088 56.098 -24.207)" gradientUnits="userSpaceOnUse">
   <stop stop-color="#67b52b" offset="0"/>
   <stop stop-color="#2f6220" offset="1"/>
  </radialGradient>
 </defs>
 <metadata>
  <rdf:RDF>
   <cc:Work rdf:about="">
    <dc:format>image/svg+xml</dc:format>
    <dc:type rdf:resource="http://purl.org/dc/dcmitype/StillImage"/>
    <dc:title/>
   </cc:Work>
  </rdf:RDF>
 </metadata>
 <g transform="translate(-106.51 -72.665)">
  <ellipse cx="120.47" cy="87.33" rx="13.965" ry="13.898" fill="#02cabd" stroke-width="4"/>
 </g>
 <g transform="translate(-106.51 -72.665)">
  <path d="m119.56 84.037c-0.0254-0.15164 2.3926-2.3178 1.8929-3.8122-0.6862-2.0522-4.0847-1.1387-5.081-1.1387-0.99628 0-6.9006-2.3119-1.2453-5.2975 3.2752-1.729 5.6496 0.57416 6.2056 0.4069 3.6054-1.0847 4.375 2.3041 4.7534 4.8906 0.0417 0.28544 5.0627-1.482 5.5792 3.1191 0.14187 1.2639 7.2556 1.6296 3.5592 6.7392-0.75569 1.0446 1.5643 0.05392 0.87422 2.5685-0.48401 1.7638-3.7769 3.0372-4.284 0.89116-0.89711-3.7966 1.4446-6.9808-7.6215-4.1092-9.0661 2.8715-4.6327-4.2578-4.6327-4.2578z" fill="url(#radialGradient2958)" stroke="#335f1e" stroke-width=".965"/>
 </g>
 <g transform="translate(-106.51 -72.665)" style="mix-blend-mode:normal">
  <path d="m117.53 82.075c-1.8314 0.03318-6.442 0.35384-8.5837 6.0905-0.74607 1.9984-0.28441 4.128 0.23295 5.4514 0.55686 1.3399 1.0725 2.2169 0.4276 3.1165-1.0188 1.4213-1.9774 0.86754-1.0223 1.3192 1.2675 0.59935 2.9626 0.47013 5.1449 1.3363 2.5222 1.0011 7.286 1.0272 9.4213-0.66817 1.638-1.3006 4.4329-3.7971 3.9422-7.5504-0.52327-4.0027-4.2844-9.0285-9.563-9.0953z" fill="url(#radialGradient872)" stroke="#847964" stroke-width=".965"/>
 </g>
</svg>
