<svg width="114.395" height="107.958" viewBox="0 0 30.267 28.564" xmlns="http://www.w3.org/2000/svg"><defs><radialGradient id="b" cx="101.41" cy="96.432" r="9.63" gradientTransform="matrix(-.72647 1.1113 -.96314 -.62962 283.29 33.54)" gradientUnits="userSpaceOnUse"><stop stop-color="#f9f4e4" offset="0"/><stop stop-color="#ead7bb" offset="1"/></radialGradient><radialGradient id="a" cx="30.079" cy="-79.539" r="11.313" gradientTransform="matrix(-.58643 .553 -1.0585 -1.1088 56.098 -24.207)" gradientUnits="userSpaceOnUse"><stop stop-color="#67b52b" offset="0"/><stop stop-color="#2f6220" offset="1"/></radialGradient></defs><ellipse cx="120.47" cy="87.33" rx="13.965" ry="13.898" fill="#02cabd" transform="translate(-106.51 -72.665)"/><path d="M119.56 84.037c-.025-.152 2.393-2.318 1.893-3.812-.686-2.052-4.085-1.139-5.081-1.139-.996 0-6.9-2.312-1.245-5.297 3.275-1.73 5.65.574 6.205.407 3.606-1.085 4.375 2.304 4.754 4.89.041.286 5.062-1.482 5.579 3.12.142 1.263 7.255 1.629 3.559 6.738-.756 1.045 1.564.054.874 2.569-.484 1.764-3.777 3.037-4.284.891-.897-3.797 1.445-6.98-7.621-4.11-9.066 2.872-4.633-4.257-4.633-4.257z" fill="url(#a)" stroke="#335f1e" stroke-width=".965" transform="translate(-106.51 -72.665)"/><path d="M117.53 82.075c-1.831.033-6.442.354-8.584 6.09-.746 1.999-.284 4.129.233 5.452.557 1.34 1.073 2.217.428 3.116-1.019 1.422-1.978.868-1.022 1.32 1.267.599 2.962.47 5.144 1.336 2.523 1.001 7.286 1.027 9.422-.668 1.638-1.3 4.433-3.797 3.942-7.55-.523-4.003-4.284-9.03-9.563-9.096z" fill="url(#b)" stroke="#847964" stroke-width=".965" transform="translate(-106.51 -72.665)"/></svg>